<svg baseProfile="tiny" xmlns="http://www.w3.org/2000/svg" viewBox="0 0 500 500"><path fill="#DBDCDC" d="M35 35v369.9h430V35H35z"/><path fill="#F1F2F2" d="M40 39.9h420.1v360.2H40z"/><path fill="#DBDCDC" d="M0 0v500h500V0H0zm495.1 495.1H4.9V4.9H495v490.2z"/><path d="M88.3 324.8V299h3.4v25.8h-3.4zm9.1 0v-18.7h2.8v2.6c.6-.9 1.4-1.6 2.3-2.2s2.1-.8 3.3-.8c1.4 0 2.5.3 3.4.9s1.5 1.4 1.9 2.4c1.5-2.2 3.4-3.3 5.8-3.3 1.9 0 3.3.5 4.3 1.5s1.5 2.6 1.5 4.7v12.8h-3.1V313c0-1.3-.1-2.2-.3-2.7s-.6-1-1.1-1.3-1.2-.5-1.9-.5c-1.3 0-2.4.4-3.3 1.3s-1.3 2.3-1.3 4.2v10.8h-3.2v-12.1c0-1.4-.3-2.5-.8-3.2s-1.4-1.1-2.5-1.1c-.9 0-1.7.2-2.5.7s-1.3 1.2-1.6 2.1-.5 2.2-.5 3.9v9.7h-3.2zm42.1-2.3c-1.2 1-2.3 1.7-3.4 2.1s-2.2.6-3.5.6c-2.1 0-3.6-.5-4.7-1.5s-1.7-2.3-1.7-3.8c0-.9.2-1.7.6-2.5s1-1.4 1.6-1.8 1.4-.8 2.3-1c.6-.2 1.6-.3 2.8-.5 2.6-.3 4.4-.7 5.6-1.1v-.8c0-1.3-.3-2.2-.9-2.7-.8-.7-2-1.1-3.6-1.1-1.5 0-2.6.3-3.3.8s-1.2 1.4-1.6 2.8l-3.1-.4c.3-1.3.7-2.4 1.4-3.2s1.6-1.4 2.8-1.9 2.6-.7 4.2-.7 2.9.2 3.9.6 1.7.8 2.2 1.4.8 1.3 1 2.2c.1.5.2 1.5.2 2.9v4.2c0 2.9.1 4.8.2 5.6s.4 1.5.8 2.2H140c-.2-.8-.4-1.6-.5-2.4zm-.2-7.1c-1.1.5-2.9.9-5.2 1.2-1.3.2-2.2.4-2.8.6s-1 .6-1.2 1-.4 1-.4 1.5c0 .8.3 1.5 1 2.1s1.6.8 2.8.8c1.2 0 2.3-.3 3.3-.8s1.6-1.3 2.1-2.2c.3-.7.5-1.8.5-3.2v-1zm7.5 10.9l3.1.5c.1.9.5 1.6 1.1 2.1.8.6 1.9.9 3.2.9 1.5 0 2.6-.3 3.4-.9s1.3-1.4 1.6-2.5c.2-.6.2-2 .2-4.1-1.4 1.6-3.1 2.4-5.2 2.4-2.6 0-4.6-.9-6-2.8s-2.1-4.1-2.1-6.7c0-1.8.3-3.4 1-4.9s1.6-2.7 2.8-3.5 2.7-1.2 4.3-1.2c2.2 0 4 .9 5.4 2.7v-2.2h2.9v16.1c0 2.9-.3 5-.9 6.2s-1.5 2.2-2.8 2.9-2.9 1.1-4.7 1.1c-2.2 0-4-.5-5.4-1.5s-2-2.6-1.9-4.6zm2.6-11.2c0 2.4.5 4.2 1.5 5.4s2.2 1.7 3.7 1.7 2.7-.6 3.7-1.7 1.5-2.9 1.5-5.3c0-2.3-.5-4-1.5-5.2s-2.2-1.7-3.7-1.7c-1.4 0-2.6.6-3.6 1.7s-1.6 2.8-1.6 5.1zm30.8 3.6l3.3.4c-.5 1.9-1.5 3.4-2.9 4.4s-3.2 1.6-5.3 1.6c-2.7 0-4.9-.8-6.5-2.5s-2.4-4-2.4-7.1c0-3.1.8-5.6 2.4-7.3s3.7-2.6 6.3-2.6c2.5 0 4.5.8 6.1 2.5s2.4 4.1 2.4 7.2v.8h-13.9c.1 2.1.7 3.6 1.7 4.7s2.3 1.6 3.9 1.6c1.2 0 2.2-.3 3-.9s1.4-1.4 1.9-2.8zm-10.4-5.1h10.4c-.1-1.6-.5-2.7-1.2-3.5-1-1.2-2.3-1.8-3.9-1.8-1.5 0-2.7.5-3.7 1.5s-1.5 2.2-1.6 3.8zm46.4 2.1l3.4.9c-.7 2.8-2 4.9-3.9 6.4s-4.1 2.2-6.8 2.2c-2.8 0-5-.6-6.8-1.7s-3.1-2.8-4-4.9-1.4-4.4-1.4-6.9c0-2.7.5-5 1.5-7s2.5-3.5 4.4-4.6 4-1.6 6.2-1.6c2.6 0 4.7.7 6.5 2s3 3.2 3.7 5.5l-3.4.8c-.6-1.9-1.5-3.2-2.6-4.1s-2.6-1.3-4.3-1.3c-2 0-3.6.5-5 1.4s-2.3 2.2-2.8 3.8-.8 3.2-.8 4.9c0 2.2.3 4.1 1 5.7s1.6 2.9 3 3.7 2.8 1.2 4.4 1.2c1.9 0 3.5-.6 4.9-1.7s2.3-2.5 2.8-4.7zm6-.3c0-3.5 1-6 2.9-7.7 1.6-1.4 3.6-2.1 5.9-2.1 2.6 0 4.7.8 6.3 2.5s2.4 4 2.4 7c0 2.4-.4 4.3-1.1 5.7s-1.8 2.4-3.1 3.2-2.9 1.1-4.5 1.1c-2.6 0-4.7-.8-6.3-2.5s-2.5-4-2.5-7.2zm3.3 0c0 2.4.5 4.2 1.6 5.4s2.4 1.8 3.9 1.8c1.6 0 2.9-.6 3.9-1.8s1.6-3 1.6-5.5c0-2.3-.5-4.1-1.6-5.2s-2.4-1.8-3.9-1.8c-1.6 0-2.9.6-3.9 1.8s-1.6 2.9-1.6 5.3zm17.9 9.4v-18.7h2.8v2.6c.6-.9 1.4-1.6 2.3-2.2s2.1-.8 3.3-.8c1.4 0 2.5.3 3.4.9s1.5 1.4 1.9 2.4c1.5-2.2 3.4-3.3 5.8-3.3 1.9 0 3.3.5 4.3 1.5s1.5 2.6 1.5 4.7v12.8h-3.1V313c0-1.3-.1-2.2-.3-2.7s-.6-1-1.1-1.3-1.2-.5-1.9-.5c-1.3 0-2.4.4-3.3 1.3s-1.3 2.3-1.3 4.2v10.8h-3.2v-12.1c0-1.4-.3-2.5-.8-3.2s-1.4-1.1-2.5-1.1c-.9 0-1.7.2-2.5.7s-1.3 1.2-1.6 2.1-.5 2.2-.5 3.9v9.7h-3.2zm30-22.2V299h3.2v3.6h-3.2zm0 22.2v-18.7h3.2v18.7h-3.2zm8 0v-18.7h2.8v2.7c1.4-2.1 3.4-3.1 5.9-3.1 1.1 0 2.2.2 3.1.6s1.6.9 2.1 1.6.8 1.4 1 2.3c.1.6.2 1.6.2 3.1v11.5h-3.2v-11.4c0-1.3-.1-2.3-.4-2.9s-.7-1.1-1.3-1.5-1.4-.6-2.2-.6c-1.3 0-2.5.4-3.5 1.3s-1.5 2.5-1.5 4.9v10.2h-3zm19.5 1.5l3.1.5c.1.9.5 1.6 1.1 2.1.8.6 1.9.9 3.2.9 1.5 0 2.6-.3 3.4-.9s1.3-1.4 1.6-2.5c.2-.6.2-2 .2-4.1-1.4 1.6-3.1 2.4-5.2 2.4-2.6 0-4.6-.9-6-2.8s-2.1-4.1-2.1-6.7c0-1.8.3-3.4 1-4.9s1.6-2.7 2.8-3.5 2.7-1.2 4.3-1.2c2.2 0 4 .9 5.4 2.7v-2.2h2.9v16.1c0 2.9-.3 5-.9 6.2s-1.5 2.2-2.8 2.9-2.9 1.1-4.7 1.1c-2.2 0-4-.5-5.4-1.5s-2-2.6-1.9-4.6zm2.6-11.2c0 2.4.5 4.2 1.5 5.4s2.2 1.7 3.7 1.7 2.7-.6 3.7-1.7 1.5-2.9 1.5-5.3c0-2.3-.5-4-1.5-5.2s-2.2-1.7-3.7-1.7c-1.4 0-2.6.6-3.6 1.7s-1.6 2.8-1.6 5.1zm27.2 1.4l3.2-.3c.2 1.3.5 2.3 1.1 3.2s1.4 1.5 2.6 2 2.5.8 4 .8c1.3 0 2.4-.2 3.4-.6s1.7-.9 2.2-1.6.7-1.4.7-2.2c0-.8-.2-1.5-.7-2.1s-1.2-1.1-2.3-1.5c-.7-.3-2.2-.7-4.6-1.3s-4-1.1-5-1.6c-1.2-.6-2.1-1.4-2.8-2.4s-.9-2-.9-3.2c0-1.3.4-2.5 1.1-3.6s1.8-2 3.2-2.6 3-.9 4.7-.9c1.9 0 3.6.3 5.1.9s2.6 1.5 3.4 2.7 1.2 2.5 1.3 4.1l-3.3.2c-.2-1.6-.8-2.9-1.8-3.7s-2.5-1.2-4.5-1.2c-2.1 0-3.6.4-4.5 1.1s-1.4 1.7-1.4 2.7c0 .9.3 1.7 1 2.3.7.6 2.4 1.2 5.1 1.8s4.7 1.2 5.7 1.6c1.5.7 2.6 1.6 3.3 2.6s1.1 2.3 1.1 3.7c0 1.4-.4 2.7-1.2 3.9s-1.9 2.2-3.4 2.8-3.1 1-5 1c-2.3 0-4.3-.3-5.9-1s-2.8-1.7-3.7-3.1-1.1-2.8-1.2-4.5zm23.6-1.1c0-3.5 1-6 2.9-7.7 1.6-1.4 3.6-2.1 5.9-2.1 2.6 0 4.7.8 6.3 2.5s2.4 4 2.4 7c0 2.4-.4 4.3-1.1 5.7s-1.8 2.4-3.1 3.2-2.9 1.1-4.5 1.1c-2.6 0-4.7-.8-6.3-2.5s-2.5-4-2.5-7.2zm3.3 0c0 2.4.5 4.2 1.6 5.4s2.4 1.8 3.9 1.8c1.6 0 2.9-.6 3.9-1.8s1.6-3 1.6-5.5c0-2.3-.5-4.1-1.6-5.2s-2.4-1.8-3.9-1.8c-1.6 0-2.9.6-3.9 1.8s-1.6 2.9-1.6 5.3zm16.7 0c0-3.5 1-6 2.9-7.7 1.6-1.4 3.6-2.1 5.9-2.1 2.6 0 4.7.8 6.3 2.5s2.4 4 2.4 7c0 2.4-.4 4.3-1.1 5.7s-1.8 2.4-3.1 3.2-2.9 1.1-4.5 1.1c-2.6 0-4.7-.8-6.3-2.5s-2.5-4-2.5-7.2zm3.3 0c0 2.4.5 4.2 1.6 5.4s2.4 1.8 3.9 1.8c1.6 0 2.9-.6 3.9-1.8s1.6-3 1.6-5.5c0-2.3-.5-4.1-1.6-5.2s-2.4-1.8-3.9-1.8c-1.6 0-2.9.6-3.9 1.8s-1.6 2.9-1.6 5.3zm17.9 9.4v-18.7h2.8v2.7c1.4-2.1 3.4-3.1 5.9-3.1 1.1 0 2.2.2 3.1.6s1.6.9 2.1 1.6.8 1.4 1 2.3c.1.6.2 1.6.2 3.1v11.5h-3.2v-11.4c0-1.3-.1-2.3-.4-2.9s-.7-1.1-1.3-1.5-1.4-.6-2.2-.6c-1.3 0-2.5.4-3.5 1.3s-1.5 2.5-1.5 4.9v10.2h-3z" fill="#9A9B9B"/><path fill="#FFF" d="M187.3 239l-33.8-39 4.2-47.7 40-31.8 148.8 13L336.2 252l-148.9-13zm-20.7-55.6c2.9.3 5.5-1.9 5.8-4.8.3-2.9-1.9-5.5-4.8-5.8-2.9-.3-5.5 1.9-5.8 4.8-.3 3 1.9 5.6 4.8 5.8zm.5-5.3"/><path fill="#DBDCDC" d="M336.9 253l-150-13.1-.2-.3-34.1-39.3 4.2-48.4 40.6-32.2h.3l149.7 13.1L336.9 253zm-149.2-14.8l147.7 12.9 10.2-116.8L198 121.4l-39.5 31.4-4.1 47 33.3 38.4zm-20.6-53.9h-.5c-3.4-.3-5.9-3.3-5.6-6.7.3-3.4 3.3-5.9 6.7-5.6 1.6.1 3.1.9 4.2 2.2 1.1 1.3 1.6 2.9 1.4 4.5-.3 3.2-3 5.6-6.2 5.6zm-.4-1.7c2.5.2 4.6-1.6 4.9-4.1.1-1.2-.3-2.4-1-3.3-.8-.9-1.8-1.5-3-1.6-2.5-.2-4.6 1.6-4.9 4.1-.3 2.5 1.5 4.6 4 4.9z"/></svg>